<svg width="131" height="60" viewBox="0 0 131 60" fill="none" xmlns="http://www.w3.org/2000/svg">
<path fill-rule="evenodd" clip-rule="evenodd" d="M21.0504 25.3509C21.537 23.7081 21.4968 21.6411 21.4968 19.5117V4.27091C21.4968 3.53878 21.6754 1.44953 21.3852 1.0165C21.095 0.583476 19.979 0.681689 19.1977 0.681689C16.9656 0.681689 15.9746 0.373658 15.7737 2.50309L15.6889 2.56112C13.9389 1.22186 12.2738 -0.0504415 9.06399 0.00759318L7.99704 0.0924132C7.37745 0.184754 6.76772 0.334197 6.17565 0.538834C5.09552 0.983323 4.11481 1.63862 3.29082 2.46644C2.46683 3.29426 1.81609 4.278 1.37662 5.36018C0.953266 6.41999 0.64205 7.52121 0.448065 8.64584C0.21332 9.75174 0.156057 10.888 0.278425 12.0119C0.448065 13.0654 0.345388 13.985 0.55967 14.9047C1.33644 18.2037 2.88552 20.7751 5.72476 22.0027C7.28926 22.6743 9.01183 22.8894 10.6934 22.6233C11.8244 22.4253 12.9093 22.0213 13.8943 21.4313L15.0996 20.5385H15.1264C15.2614 21.5397 15.2448 22.5555 15.0773 23.5518C14.5773 26.4045 13.738 27.3643 10.8943 27.8732C10.0968 28.0141 9.28255 28.0337 8.47918 27.9312L6.12208 27.6232L2.66678 26.7884C2.53996 26.8132 2.42164 26.8701 2.32314 26.9538C2.22465 27.0374 2.14929 27.1449 2.10429 27.2661C2.02847 28.4276 2.06585 29.5938 2.21589 30.7481C2.61321 31.4088 3.88997 31.6722 4.68906 31.9267C7.36759 32.7794 11.6934 33.1901 14.5951 32.1811C17.9165 31.0383 20.0192 28.8017 21.0504 25.3509ZM15.1532 8.87351V16.7037C14.5638 17.123 13.9112 17.4455 13.2202 17.6591C8.49257 19.1412 6.70689 15.8198 6.70689 11.4583C6.63889 10.1189 6.80971 8.7781 7.21134 7.49854C7.62651 6.42713 8.26936 5.48964 9.31845 5.05661C9.69344 4.90483 10.1443 4.94054 10.5506 4.77537C11.7346 4.73421 12.9158 4.91593 14.0327 5.31107L15.0773 5.8066C15.3317 6.25302 15.1532 8.1771 15.1532 8.87351ZM34.1573 23.8063C35.4757 23.5512 36.739 23.0661 37.8894 22.3733L39.376 21.2795C39.7599 21.7751 39.6081 22.5295 40.1036 22.909C40.5992 23.2884 44.425 23.4268 44.7911 22.909C45.1571 22.3911 44.9875 21.2706 44.9875 20.4938V10.4762C44.9875 8.5253 45.1348 6.34231 44.6795 4.80662C43.6125 1.19507 40.559 -0.0459773 35.8403 0.00312897L33.3136 0.168305C31.8687 0.364921 30.4417 0.675406 29.0458 1.09686C28.4387 1.30668 27.5101 1.46293 27.2601 2.02095C27.0101 2.57898 27.0592 5.52089 27.3985 5.75303C27.8985 6.09677 30.3002 5.30661 30.9699 5.16375C32.9073 4.74412 37.3269 4.31555 38.4072 5.69946C39.184 6.69944 39.0545 8.6503 39.0367 10.4449C38.5903 10.5521 37.8224 10.2574 37.3537 10.1637L35.2198 9.94046C34.4342 9.85264 33.6399 9.88122 32.8627 10.0253C29.202 10.6547 26.6128 12.0476 25.7646 15.4404C24.4521 20.659 28.9744 24.9 34.1573 23.8063ZM33.0904 14.1234C33.6216 13.8109 34.2823 13.8957 34.943 13.6458C36.4385 13.6458 37.7019 13.8734 38.9608 13.927C39.1885 14.427 39.0233 16.9761 39.0144 17.7439C37.9474 19.159 33.6573 20.5697 32.1975 18.5564C31.1484 17.0698 31.8493 14.8511 33.0904 14.1234ZM50.291 21.2662C50.291 22.0474 50.1972 22.8197 50.6838 23.1188C50.9606 23.284 51.6168 23.2036 52.0231 23.2036C52.9561 23.2036 56.1659 23.4 56.5141 22.9492C56.9605 22.3911 56.7105 19.4581 56.7105 18.4314V6.18159C57.5545 5.69247 58.4752 5.34983 59.4337 5.16822C60.9426 4.81555 62.9425 4.81108 63.697 5.81553C64.3622 6.70837 64.2595 8.29763 64.2595 9.85564V18.3376C64.2595 19.4894 64.0006 22.7081 64.6523 23.1099C65.0541 23.3509 66.8844 23.1947 67.5139 23.1947C68.1433 23.1947 69.9871 23.3465 70.3799 23.0518C70.9067 22.6545 70.6879 19.8019 70.6879 18.7841C70.6879 14.5788 70.6969 10.369 70.7147 6.15481C70.929 5.80214 71.8085 5.65928 72.2326 5.51196C74.0807 4.86019 76.9735 4.43162 77.8709 6.23963C78.3173 7.17711 78.1789 8.88244 78.1789 10.2574V18.668C78.1789 19.668 77.9557 22.3867 78.3753 22.9358C78.6208 23.2527 79.1923 23.1902 79.7503 23.1902C80.5895 23.1902 83.9154 23.3375 84.2993 23.0474C84.8529 22.6277 84.6341 20.9313 84.6341 19.9894V11.2619C84.6341 7.58336 84.9198 4.23073 83.2949 2.13702C80.3842 -1.65756 72.7102 0.373658 69.9022 2.78433H69.7906C68.7148 0.976326 66.8621 -0.0415131 63.9336 0.00312897L62.755 0.087949C61.955 0.194148 61.1662 0.371941 60.3979 0.61919C59.4161 0.982851 58.4676 1.43095 57.5632 1.95845L56.1882 2.80219C55.6882 2.19952 55.9918 1.22186 55.2953 0.811151C55.023 0.645975 51.4249 0.601333 50.9204 0.726331C50.7319 0.774233 50.5642 0.882392 50.4427 1.03436C50.1481 1.48078 50.2999 4.4227 50.2999 5.2709L50.291 21.2662ZM93.2902 22.217C96.0446 23.9447 101.018 24.3197 104.937 23.342C105.924 23.0965 107.848 22.7483 108.192 21.9403C108.298 20.8199 108.316 19.6929 108.245 18.5698C108.177 18.3921 108.049 18.2436 107.884 18.1501C107.531 17.9984 106.991 18.2573 106.647 18.3466L103.754 18.8778C102.701 19.0785 101.623 19.1177 100.558 18.9939C99.808 18.9376 99.0624 18.8332 98.3259 18.6814C96.1295 18.0162 94.6697 16.3778 94.6473 13.5743C95.1697 13.3377 96.8795 13.5208 97.5937 13.5208H104.736C105.763 13.5208 107.415 13.7306 108.044 13.2663C108.888 12.6368 108.826 8.42263 108.553 7.06551C107.629 2.46737 104.857 -0.0772268 99.2901 0.0209858L98.616 0.047771L96.5937 0.329016C94.4241 0.87365 92.5536 1.87363 91.3483 3.387C90.6757 4.19943 90.1184 5.10077 89.6921 6.06552C88.5939 8.67262 88.2903 13.3958 89.2189 16.5207C89.9689 19.0162 91.2858 20.9537 93.2902 22.2036V22.217ZM94.942 7.68157C95.4464 6.2307 96.2812 5.17268 97.75 4.7084L99.0044 4.46734C102.335 4.43609 103.254 6.15927 103.214 9.49404C102.768 9.69939 101.317 9.54761 100.687 9.54761H94.634C94.4509 9.07887 94.7991 8.08335 94.942 7.66818V7.68157ZM129.607 13.5743C128.267 11.2529 125.357 10.3467 122.758 9.27976C121.526 8.7753 119.509 8.3512 119.218 6.92265C118.607 3.86913 124.883 4.75305 126.741 5.21286C127.258 5.33786 128.459 5.8066 128.79 5.37804C129.12 4.94947 128.959 3.90931 128.959 3.24861C128.959 2.69951 129.031 1.99863 128.816 1.64596C128.495 1.10579 127.651 0.954005 126.995 0.753116C125.306 0.221779 123.542 -0.0315188 121.772 0.00312897L120.169 0.114734C119.17 0.260927 118.192 0.52311 117.254 0.895971C115.656 1.54602 114.375 2.79364 113.683 4.37359C112.687 6.83783 113.62 10.1056 115.116 11.3065C116.901 12.7484 119.325 13.5699 121.625 14.5073C122.785 14.9805 124.102 15.2529 124.348 16.6412C125.013 20.4135 117.87 19.0474 115.732 18.4939C115.285 18.3733 113.875 17.8957 113.5 18.101C112.991 18.3912 113.192 19.8198 113.192 20.5965C113.192 21.0429 113.125 21.6769 113.303 21.9715C113.839 22.8643 116.799 23.4268 118.102 23.6858C123.281 24.7125 127.888 22.9626 129.553 19.6992C130.388 18.1234 130.54 15.1814 129.607 13.5609V13.5743ZM111.419 35.7168L110.437 35.7748C109.485 35.7968 108.537 35.8998 107.602 36.0829C105.489 36.4502 103.45 37.1621 101.567 38.19C101.12 38.4623 99.3348 39.3417 99.6607 40.1542C99.9151 40.806 102.5 40.2658 103.335 40.2078C104.986 40.0962 105.794 39.9533 107.352 39.9578H110.214C111.07 39.9445 111.925 39.9997 112.772 40.123C113.334 40.2473 113.861 40.4976 114.312 40.8551C114.964 41.4131 114.843 43.306 114.62 44.1943C113.96 47.0583 113.098 49.8718 112.04 52.6138C111.857 53.0603 110.415 55.8727 112.013 55.5334C112.736 55.3772 114.201 53.7477 114.651 53.2031C116.884 50.3505 118.29 47.0648 119.339 42.9354C119.58 41.9756 120.134 38.2034 119.589 37.3239C118.696 35.8686 113.968 35.6677 111.419 35.7168ZM107.933 43.7524L105.379 44.8729L101.143 46.4711C97.375 47.9309 93.1786 48.8862 88.9867 49.9264L84.0761 50.8505L78.2949 51.6094L76.4423 51.7478C75.7012 51.904 74.8307 51.8147 74.0004 51.9442C72.1663 52.157 70.319 52.2331 68.4737 52.1719L64.2907 52.1987L61.2863 52.0871L59.3533 51.9754C58.9069 51.8862 58.3801 51.9487 57.8935 51.8594L52.0275 51.2165C50.291 50.8906 48.4249 50.7701 46.7776 50.3237L45.4027 50.096L40.3001 48.9532C36.6573 47.8148 33.0368 46.9264 29.6351 45.614C25.8583 44.1542 21.9164 42.5604 18.5772 40.5873L15.2692 38.681C14.6666 38.3194 14.18 37.7882 13.2202 37.7882C12.5059 38.1409 12.2871 38.6051 12.7737 39.4444C13.1337 39.9316 13.5693 40.3581 14.0639 40.7078L15.5817 42.1095C17.7692 43.8506 19.9656 45.6407 22.345 47.1898C24.3985 48.5291 26.586 49.6675 28.7422 50.9219L31.9698 52.4665C33.8136 53.279 35.7287 54.1183 37.6662 54.8772L42.6348 56.5334C45.3134 57.4262 48.2285 57.8727 51.1168 58.5825L57.206 59.4753L59.1703 59.6182L62.4827 59.8682H63.6881C64.8602 60.0328 66.0488 60.0433 67.2237 59.8994L68.4871 59.8682L70.0317 59.8414L75.3084 59.4217C77.6744 58.895 80.1655 58.9753 82.4065 58.2968L87.5716 57.0379C90.6499 56.1472 93.6767 55.0876 96.6384 53.8638C100.321 52.3246 103.853 50.446 107.187 48.2523C108.33 47.4845 109.946 46.913 110.25 45.3059C110.5 43.9443 109.107 43.4265 107.933 43.7524Z" fill="white"/>
</svg>
