<svg width="190" height="60" viewBox="0 0 190 60" fill="none" xmlns="http://www.w3.org/2000/svg">
<path d="M185.647 52.2572C183.509 52.2572 181.798 53.9778 181.798 56.1064C181.798 58.235 183.518 60 185.647 60C187.776 60 189.496 58.2882 189.496 56.1064C189.496 53.9246 187.776 52.2572 185.647 52.2572ZM185.647 59.4501C183.838 59.4501 182.348 57.9689 182.348 56.1064C182.348 54.2439 183.838 52.8071 185.647 52.8071C187.456 52.8071 188.937 54.2882 188.937 56.1064C188.937 57.9246 187.456 59.4501 185.647 59.4501ZM186.711 56.1951C187.172 55.9645 187.412 55.592 187.412 55.0776C187.412 54.4301 186.906 53.8714 186.117 53.8714H183.838V58.235H184.769V56.5144H185.7C186.161 56.5144 186.348 56.745 186.445 57.2151C186.49 57.5432 186.445 57.9601 186.587 58.235H187.563C187.376 58.0044 187.376 57.49 187.376 57.2151C187.332 56.7539 187.19 56.2838 186.729 56.1951H186.711ZM185.789 55.8758H184.769V54.6252H185.789C186.206 54.6252 186.436 54.8115 186.436 55.2283C186.436 55.6895 186.206 55.8758 185.789 55.8758ZM177.709 31.8757L178.082 32.665C178.082 32.665 183.279 30.8557 183.279 27.0952C183.279 26.0752 182.259 24.7714 180.955 24.7714C179.563 24.7714 178.356 25.8889 178.126 27.3258C177.895 28.6739 178.871 29.7825 180.077 29.8801C179.891 30.2526 179.332 31.042 177.709 31.8757ZM145.505 29.9333C146.942 29.9333 148.29 28.7714 148.52 27.3346C148.751 25.9422 147.731 24.7803 146.294 24.7803C144.857 24.7803 143.509 25.9422 143.323 27.3346C143.092 28.7714 144.068 29.9333 145.505 29.9333ZM46.3735 27.7958C51.4822 25.8889 57.7438 21.206 57.7438 13.6849C57.7438 8.94872 55.8369 5.70259 53.1496 3.5651C54.6839 2.44758 56.2627 1.61387 57.9301 0.966418C58.4445 0.780164 58.4888 0.452003 58.4445 0.318964C58.4002 0.132711 58.2582 -0.0978892 57.6551 0.0440184C55.8015 0.505218 53.8946 1.48083 51.9966 2.78461C48.9278 0.83338 45.1229 0.0883646 41.7349 0.0883646C35.9788 0.0883646 26.8789 2.4121 21.451 8.39883C12.8655 17.8623 13.7436 29.144 21.8678 29.002C27.5264 28.9577 35.6949 19.2991 37.3712 10.758C37.5131 10.0662 37.3269 9.73808 37.0963 9.73808C36.6351 9.64939 36.5375 10.0662 36.3513 10.758C35.5176 14.0042 32.9632 19.6716 29.114 23.5209C26.4266 26.2082 21.6461 29.6495 18.533 26.4477C15.1893 22.971 18.6217 13.268 25.1672 7.92876C29.2027 4.62941 35.6062 1.61387 42.7992 1.61387C46.2316 1.61387 48.7859 2.40323 50.5065 3.7957V3.84005C48.5997 5.27686 46.7016 6.99749 44.7948 8.94872C40.2892 13.4986 34.3557 22.5009 25.9565 38.6961C19.8279 50.5277 14.258 57.2151 8.97195 57.2151C4.42204 57.2151 2.05396 54.1995 2.05396 50.2527C2.05396 40.9223 10.0363 33.3568 15.6061 33.3568C19.0829 33.3568 20.0141 36.8336 19.686 39.2017C19.3135 41.3835 16.8124 47.4146 10.2225 49.1795C9.66375 49.3214 9.43315 49.552 9.53072 49.7826C9.67262 50.1552 10.1338 50.2438 10.595 50.1995C13.2913 49.9246 16.6793 47.5565 18.3024 45.3746C19.9254 43.1928 21.3179 40.8247 21.3179 37.5342C21.3179 34.2438 18.9942 31.8225 15.5618 31.8225C12.1294 31.8225 8.04069 34.4211 5.77016 36.6917C2.79897 39.6629 0.297852 43.929 0.297852 49.7294C0.297852 55.5299 3.6859 58.6873 9.15821 58.6873C14.9587 58.6873 26.6572 51.9113 32.6883 37.9866C38.4887 24.5763 40.2981 20.4432 42.8967 15.9909C45.9566 10.8379 48.6972 7.30792 51.5265 4.85114C52.7327 6.3323 53.2915 8.28353 53.2915 10.6073C53.2915 18.1727 48.3691 25.41 44.8923 26.7581C43.4112 25.9244 42.063 25.5963 41.1318 25.5963C40.1562 25.5963 38.8613 25.9688 38.8613 27.0331C38.8613 28.0974 39.9788 28.7537 41.7881 28.7537C42.5775 28.7537 43.5974 28.6118 44.6617 28.3369C46.0098 29.4987 46.7992 31.3524 46.7992 33.7205C46.7992 40.4966 41.2737 50.3769 38.4887 52.9844C37.5575 53.8625 35.3756 56.0975 33.0608 55.6275C27.9078 54.6075 31.0652 46.3414 33.522 43.1396C35.3756 40.7272 37.7881 38.634 41.2293 37.756C41.6462 37.6141 41.7437 37.3835 41.6462 37.0642C41.5575 36.7892 40.44 36.8779 39.7925 37.0642C31.7215 39.3347 28.4665 48.7095 28.4665 51.9645C28.4665 55.2195 30.2758 57.3924 33.7526 57.3924C39.0475 57.3924 43.3579 53.5875 44.7948 52.1951C47.8103 49.1795 50.9677 44.2128 50.9677 38.5542C50.9677 33.1262 48.7859 29.7382 46.3735 27.787V27.7958ZM43.0741 27.4233C43.0741 27.4233 42.3291 27.5652 41.7704 27.5652C40.9366 27.5652 40.5641 27.379 40.5641 27.1927C40.5641 27.0065 40.7504 26.7315 41.5398 26.8646C42.0985 27.0065 42.6573 27.1395 43.1185 27.379L43.0741 27.4233ZM183.651 36.6562C183.563 36.2393 184.113 35.2637 184.21 35.0775C186.72 31.2726 188.015 29.2326 188.015 27.9732C188.015 27.0419 187.509 26.8557 186.995 26.8557C186.019 26.8557 184.955 28.3369 184.485 29.1794C184.068 29.9688 183.048 32.1506 182.676 35.0775C181.053 38.5542 176.547 44.0797 174.365 47.0953C173.434 46.6341 172.095 47.2372 171.075 48.3015C170.241 49.1795 169.638 50.7583 169.682 52.8071C167.226 55.3614 165.602 56.2838 164.254 56.2838C163.882 56.2838 163.137 55.8669 163.137 54.7494C163.137 52.9844 164.157 50.1552 166.756 45.419C167.217 45.5609 167.962 45.6496 168.84 45.6496C171.997 45.6496 177.523 42.3591 177.523 38.1285C177.523 35.991 176.272 34.6961 174.232 34.6961C171.678 34.6961 165.736 37.5697 162.117 44.9489C158.214 52.8869 155.013 56.1774 153.993 56.1774C153.292 56.1774 153.017 55.3436 153.203 54.368C153.478 52.9756 156.449 47.5476 159.563 42.4833C160.955 40.2571 161.372 38.8203 161.328 37.7471C161.239 36.4433 160.449 34.8203 158.401 34.7759C155.571 34.6872 153.39 36.9134 151.908 38.9977C151.953 38.5365 152.281 34.7316 149.212 34.7316C147.075 34.7316 145.594 37.0021 144.662 38.7227C143.598 40.7183 138.764 50.0044 137.425 52.2306C136.361 54.1374 135.243 56.266 134.179 56.266C133.576 56.266 133.248 55.4323 133.993 53.9955L144.201 35.246H139.562L132.644 48.0088C129.026 54.5543 126.374 56.1774 125.31 56.1774C124.707 56.1774 124.245 55.4323 125.035 53.9512L136.591 32.7449H140.352L141.23 31.1218H137.469L140.582 25.4632H135.944L132.831 31.1218H127.908L127.03 32.7449H131.953L123.092 48.9844C120.68 53.4368 117.939 56.1774 116.875 56.1774C116.174 56.1774 115.944 55.3436 116.13 54.368C116.405 52.9756 119.42 47.5476 122.578 42.4833C123.926 40.2571 124.343 38.8203 124.299 37.7471C124.254 36.4433 123.465 34.8203 121.372 34.7759C118.587 34.6872 116.361 36.9134 114.871 38.9977C114.915 38.5365 115.287 34.7316 112.174 34.7316C110.037 34.7316 108.556 37.0021 107.624 38.7227C106.56 40.7183 101.726 50.0044 100.387 52.2306C99.3228 54.1374 98.2052 56.266 97.1409 56.266C96.5378 56.266 96.2629 55.4767 96.999 53.9955L107.394 35.2903H102.755L102.01 36.9134C102.01 36.9134 101.78 35.0065 99.3671 35.0065C96.9547 35.0065 89.6642 38.6695 86.0455 47.0687C83.3049 53.286 79.9701 56.2128 78.9945 56.2128C78.4357 56.2128 78.1164 55.4235 78.8526 53.9423L99.8283 15.3789H95.1897L76.9014 49.0288C73.8858 54.2705 71.4202 56.2217 70.3559 56.2217C69.7528 56.2217 69.4778 55.4323 70.214 53.9512L91.1897 15.3346H86.5511L68.2627 49.0288C65.2472 54.2705 62.9678 56.2217 61.9035 56.2217C61.3004 56.2217 61.0254 55.4323 61.7616 53.9512L72.1563 35.246H67.5177L66.7727 36.8247C66.7727 36.8247 66.5421 34.9178 64.1297 34.9178C61.7172 34.9178 53.6374 38.6784 50.5332 47.725C48.0232 54.9623 51.225 57.3747 53.1318 57.3747C55.2693 57.3747 57.0786 55.4678 58.613 53.3835C58.5687 53.8004 58.2849 57.3747 61.398 57.3747C63.2073 57.3747 64.5997 56.2128 66.8259 53.153C66.7816 53.6142 66.7816 57.3747 69.8858 57.3747C71.6951 57.3747 73.2738 56.2128 75.5 53.153C75.4557 54.0842 75.6419 57.4191 78.4712 57.4191C79.908 57.4191 82.0455 56.3991 84.8748 51.521C84.4136 55.8847 86.826 57.4634 88.3515 57.4634C90.489 57.4634 92.2983 55.5565 93.8327 53.4279C93.7884 53.8891 93.5046 57.4634 96.6177 57.4634C98.7551 57.4634 99.9081 55.5122 101.168 53.3303C102.188 51.5654 107.385 41.6318 108.405 39.6362C109.38 37.7826 110.498 36.1063 111.562 36.1063C112.121 36.1063 112.813 36.5675 111.004 39.8225L101.629 57.0909H106.267L113.975 42.9799C117.088 37.3657 118.986 35.9733 120.706 35.9733C121.265 35.9733 121.868 36.807 120.937 38.1551C116.76 44.0975 113.558 50.4567 113.23 53.0554C112.902 55.6097 114.48 57.3747 116.432 57.3747C118.569 57.3747 120.378 55.1042 121.815 53.011C121.771 53.4722 121.54 57.3747 124.644 57.3747C126.454 57.3747 128.174 56.4434 130.862 53.011C130.773 53.6585 130.534 57.4634 133.647 57.4634C135.731 57.4634 136.937 55.5122 138.197 53.286C139.217 51.521 144.831 40.7094 145.478 39.5032C146.498 37.6939 147.474 36.0708 148.538 36.0708C149.141 36.0708 149.833 36.5852 148.024 39.8314L138.649 57.0998H143.288L150.942 42.9888C154.099 37.3746 155.953 35.9821 157.718 35.9821C158.277 35.9821 158.88 36.8158 157.904 38.164C153.771 44.1063 150.525 50.4656 150.197 53.0643C149.922 55.6186 151.492 57.3836 153.443 57.3836C155.394 57.3836 157.851 55.0598 160.361 50.4656C159.527 55.6629 162.543 57.4723 164.21 57.3836C166.206 57.3392 168.157 55.8048 169.736 54.2261C170.108 56.0354 171.403 57.3836 173.54 57.3836C177.115 57.3836 181.337 54.6873 183.101 51.0687C185.425 46.2438 185.008 41.3657 183.616 36.6385L183.651 36.6562ZM173.026 36.7981C173.771 36.0531 174.33 35.8225 174.693 36.6562C174.968 37.2593 174.782 40.0442 172.698 42.3148C171.722 43.3791 169.771 44.9134 167.314 44.399C169.638 40.3635 171.722 37.9954 173.026 36.7892V36.7981ZM53.6108 56.1064C53.1939 56.1064 52.5465 55.8315 52.5465 54.7139C52.5465 52.949 53.6108 50.1197 56.3957 45.1973C60.5288 37.9067 63.3581 36.2393 64.2893 36.2393C64.6618 36.2393 65.3536 36.5143 65.3536 37.6318C65.3536 39.3968 64.2361 40.8779 61.5931 45.9423C56.9101 54.8558 54.4888 56.1064 53.6108 56.1064ZM88.8837 56.1064C88.4668 56.1064 87.8194 55.8758 87.8194 54.7583C87.8194 52.949 88.8837 50.164 91.6686 45.1973C95.8017 37.96 98.631 36.2837 99.509 36.2837C99.9259 36.2837 100.573 36.5586 100.573 37.6318C100.573 39.4411 99.509 40.9312 96.8571 45.9866C92.1653 54.9002 89.7529 56.1064 88.8748 56.1064H88.8837ZM180.45 47.0598C179.199 50.5897 176.875 56.204 173.345 56.204C170.844 56.204 171.119 53.5609 171.119 52.9578C171.119 52.9578 172.512 53.3303 174.179 51.7073C174.924 50.9623 175.66 49.011 175.155 47.858C177.798 44.3281 181.186 39.6008 182.348 37.9688C181.931 40.94 181.283 44.5587 180.45 47.0687V47.0598Z" fill="white"/>
</svg>
