<svg width="101" height="100" viewBox="0 0 101 100" fill="none" xmlns="http://www.w3.org/2000/svg">
<path fill-rule="evenodd" clip-rule="evenodd" d="M50.2304 100C22.6602 100 0.230469 77.5701 0.230469 50.0001C0.230469 22.4298 22.6602 0 50.2304 0C77.8002 0 100.23 22.4299 100.23 50.0001C100.23 77.57 77.8004 100 50.2304 100ZM58.6932 30.6605H30.4358L26.1484 37.5505H54.3733L58.6932 30.6605ZM64.468 30.7262L47.1936 58.2324H28.0323L32.453 51.3365H43.9374L48.3244 44.4439H21.7743L17.3882 51.3365H23.6778L14.9513 65.1045H51.3702L64.8217 43.8909L69.7263 51.3365H65.3039L61.1157 58.2324H74.2119L78.7593 65.1045H87.1134L64.468 30.7262Z" fill="white"/>
</svg>
