<svg width="87" height="100" viewBox="0 0 87 100" fill="none" xmlns="http://www.w3.org/2000/svg">
<path d="M39.2492 30.3251V20.6839C39.2492 19.1704 38.5205 18.4417 37.0631 18.4417H34.6528V32.5673H37.0631C38.5205 32.5673 39.2492 31.8386 39.2492 30.3251ZM31.5138 64.6861L30.2245 67.9933H32.803L31.5138 64.6861ZM78.599 0H8.02722C2.30973 0 0.179688 2.13004 0.179688 7.84753V76.8498C0.179688 77.5224 0.179688 78.083 0.235741 78.6435C0.347849 79.8767 0.403903 81.1099 1.52498 82.4552C1.63709 82.5673 2.81422 83.4641 2.81422 83.4641C3.43081 83.8004 3.87924 84.0247 4.60794 84.3049L39.3613 98.8789C41.155 99.7197 41.9398 100 43.229 100C44.5183 100 45.303 99.7197 47.0967 98.8789L81.8501 84.3049C82.5788 84.0247 83.0272 83.8004 83.6438 83.4641C83.6438 83.4641 84.8209 82.5673 84.933 82.4552C86.1102 81.0538 86.1102 79.8767 86.2223 78.6435C86.2783 78.083 86.2783 77.4664 86.2783 76.8498V7.84753C86.3905 2.13004 84.3165 0 78.599 0ZM47.7133 13.2848H53.5429V51.6256H47.7133V13.2848ZM48.1057 60.9865H51.525V72.5897H48.3299V65.9193L45.3591 70.4596H45.303L42.3322 65.9753V72.5897H39.1931V60.9865H42.6124L45.3591 65.4709L48.1057 60.9865ZM28.8232 13.2848H37.96C42.7245 13.2848 45.0227 15.639 45.0227 20.4036V30.6054C45.0227 35.37 42.6685 37.7242 37.96 37.7242H34.6528V51.6256H28.8232V13.2848ZM12.9039 13.2848H25.9084V18.6099H18.7335V29.4843H25.6281V34.8094H18.7335V46.3565H25.9644V51.6816H12.9039V13.2848ZM24.0586 71.0202C22.8254 72.0291 21.1438 72.8139 19.0138 72.8139C15.4263 72.8139 12.6797 70.3475 12.6797 66.8161V66.7601C12.6797 63.3969 15.3142 60.7063 18.9577 60.7063C20.9757 60.7063 22.4331 61.3229 23.6662 62.3879L21.7604 64.6861C20.9196 64.0135 20.0788 63.565 18.9577 63.565C17.2761 63.565 15.9869 64.9664 15.9869 66.7601V66.8161C15.9869 68.6659 17.2761 70.0112 19.1259 70.0112C19.9106 70.0112 20.5272 69.843 20.9757 69.5067V68.1054H18.6774V65.7511H24.0586V71.0202ZM30.0003 60.8744H33.0833L38.016 72.5897H34.5407L33.6999 70.5157H29.2156L28.3748 72.5897H25.0115L30.0003 60.8744ZM43.0609 91.9283L26.6931 86.3229H60.1012L43.0609 91.9283ZM63.016 72.5897H53.599V60.9865H62.96V63.7332H56.794V65.4709H62.3434V67.9933H56.794V69.843H63.016V72.5897ZM56.6259 44.843V20.0673C56.6259 15.3027 58.9801 12.9484 63.6887 12.9484H66.5474C71.312 12.9484 73.5541 15.2466 73.5541 20.0112V27.8587H67.8366V20.3475C67.8366 18.8341 67.1079 18.1054 65.6505 18.1054H64.6416C63.1281 18.1054 62.3994 18.8341 62.3994 20.3475V44.5628C62.3994 46.0762 63.1281 46.8049 64.6416 46.8049H65.7066C67.164 46.8049 67.8927 46.0762 67.8927 44.5628V35.9305H73.6102V44.843C73.6102 49.6076 71.2559 51.9619 66.5474 51.9619H63.6326C58.9801 51.9619 56.6259 49.6076 56.6259 44.843ZM74.0026 69.0022C74.0026 71.3565 72.1528 72.7578 69.294 72.7578C67.22 72.7578 65.2582 72.0852 63.8568 70.852L65.6505 68.722C66.7716 69.6188 68.0609 70.1233 69.4061 70.1233C70.247 70.1233 70.7514 69.843 70.7514 69.3386V69.2825C70.7514 68.778 70.3591 68.5538 68.7896 68.1614C66.3232 67.6009 64.4174 66.9282 64.4174 64.5179V64.4619C64.4174 62.3318 66.099 60.7623 68.9017 60.7623C70.8635 60.7623 72.4331 61.2668 73.6662 62.3318L72.0407 64.63C70.9756 63.9013 69.7985 63.509 68.7896 63.509C68.0048 63.509 67.6124 63.8453 67.6124 64.2377V64.2937C67.6124 64.7982 68.0048 65.0785 69.6304 65.4148C72.3209 65.9193 74.0026 66.8161 74.0026 69.0022Z" fill="white"/>
</svg>
