<svg width="179" height="30" viewBox="0 0 179 30" fill="none" xmlns="http://www.w3.org/2000/svg">
<path d="M32.9624 28.7194C30.5487 28.1899 28.669 27.0419 26.6234 24.9675C24.3728 22.6901 16.3369 13.189 16.3369 13.189L29.1521 1.0191H22.2206L10.5227 12.4629C10.0099 12.9609 9.71037 13.2864 9.44795 13.6109H9.38211C9.39973 13.2279 9.41549 12.8246 9.41549 12.4305V3.27893C9.41549 2.0345 8.40381 1.0191 7.15659 1.0191H1.08834C0.799952 1.0191 0.76286 1.32882 0.980775 1.42897C1.90066 1.84996 2.6221 2.34421 2.6221 3.98739V28.9781H9.41549V16.097C9.41549 15.7697 9.40066 15.5137 9.38211 15.1409H9.44795C9.6807 15.5221 10.0869 15.9598 10.5227 16.4902C10.5227 16.4902 17.661 24.8859 18.4196 25.676C21.4454 28.8437 25.6831 29.9629 32.93 29.2647C33.3204 29.2248 33.325 28.8038 32.9624 28.7194ZM46.1588 27.1411C40.5329 27.1411 37.3207 21.6385 37.3207 15.3552C37.3207 8.12129 40.5329 2.85794 46.1588 2.85794C51.7847 2.85794 54.9923 8.35775 54.9923 14.6439C54.9923 22.0707 51.7801 27.1421 46.1588 27.1421M46.1588 0C36.7273 0 29.7716 6.56806 29.7716 15.0019C29.7716 23.4356 36.1764 30 46.1588 30C55.5857 30 62.5405 23.4282 62.5405 15.0019C62.5405 6.57548 56.1375 0 46.1588 0ZM166.422 28.9781L162.244 3.46717C162.03 2.18935 160.852 1.0191 159.39 1.0191H155.474L148.62 16.9362C148.301 17.653 148.099 18.2094 147.95 18.6276H147.913C147.773 18.1881 147.574 17.6669 147.298 17.0243L141.247 2.83197H141.243C140.805 1.81751 139.794 1.0191 138.531 1.0191H132.526C132.234 1.0191 132.2 1.32882 132.418 1.42897C133.237 1.80174 133.824 2.39521 133.576 3.96513L129.471 28.9781H133.8L136.53 11.3362C136.662 10.4349 136.817 9.33976 136.869 8.78616H136.903C137.173 9.51317 137.519 10.3839 137.911 11.2843L145.448 28.9781H147.684L155.311 10.9737C155.754 9.90356 156.047 9.15152 156.249 8.57845H156.286C156.37 9.26651 156.507 10.3171 156.669 11.3733L159.493 28.9781H166.423H166.422ZM176.695 1.0191H170.35C170.055 1.0191 170.025 1.32882 170.243 1.42897C171.163 1.84996 171.885 2.34421 171.885 3.98739V28.9781H178.954V3.278C178.954 2.0345 177.942 1.0191 176.695 1.0191ZM89.6362 1.0191V17.003C89.6362 17.7856 89.6724 18.2799 89.7057 18.9809H89.6362C89.0965 18.2251 88.4984 17.4453 87.6202 16.4132L75.6015 2.51391C74.6594 1.43731 73.9073 1.02281 72.1826 1.0191H66.0735C65.787 1.0191 65.7536 1.32882 65.9706 1.42897C66.8932 1.84996 67.6138 2.34421 67.6138 3.98739V28.9781H72.1826V11.0043C72.1826 10.038 72.1455 9.29247 72.1167 8.49128H72.1826C73.0245 9.62723 74.1874 11.1295 75.1249 12.2144L89.5481 28.9781H91.9507C93.1998 28.9781 94.2096 27.9646 94.2096 26.7174V1.0191H89.6371H89.6362ZM105.973 19.158L110.351 9.52151C110.565 9.03375 110.756 8.597 110.823 8.36239H110.894C110.98 8.64151 111.164 9.06806 111.367 9.53913L115.63 19.1589H105.974L105.973 19.158ZM119.978 28.9781H127.676L115.526 2.74388C115.082 1.79525 114.12 1.02003 112.865 1.02003H107.553C107.258 1.02003 107.231 1.32326 107.447 1.4299C108.097 1.75538 108.546 2.8329 108.075 3.83717L96.323 28.979H101.519L104.439 22.5399H117.129L119.979 28.979L119.978 28.9781Z" fill="white"/>
</svg>
