<svg width="94" height="50" viewBox="0 0 94 50" fill="none" xmlns="http://www.w3.org/2000/svg">
<path d="M67.9926 15.88H92.4044C93.0298 15.88 93.536 15.3737 93.536 14.7484V1.13163C93.5398 0.506254 93.0335 0 92.4044 0H60.4732C59.9781 0 59.5054 0.204735 59.1629 0.562091L50.2476 9.92778L41.3361 0.562091C40.9936 0.204735 40.5208 0 40.022 0H10.4769C9.98184 0 9.50536 0.204735 9.1629 0.565813L0.757598 9.42898C0.437467 9.764 0.258789 10.2107 0.258789 10.676V48.8684C0.258789 49.4937 0.765043 50 1.39041 50H15.0034C15.6288 50 16.1351 49.4937 16.1351 48.8684V17.9646C16.1351 16.9334 16.9726 16.0959 18.0037 16.0959H32.5064C33.5375 16.0959 34.3751 16.9334 34.3751 17.9646V48.8609C34.3751 49.4863 34.8813 49.9926 35.5067 49.9926H49.1197C49.7451 49.9926 50.2513 49.4863 50.2513 48.8609V40.0871L59.1592 49.4305C59.5016 49.7878 59.9744 49.9926 60.4695 49.9926H92.4007C93.0261 49.9926 93.5323 49.4863 93.5323 48.8609V35.2479C93.5323 34.6225 93.0261 34.1163 92.4007 34.1163H67.9888C66.9577 34.1163 66.1202 33.2787 66.1202 32.2476V17.7449C66.1202 16.7138 66.9577 15.8763 67.9888 15.8763L67.9926 15.88Z" fill="white"/>
</svg>
