<svg width="225" height="60" viewBox="0 0 225 60" fill="none" xmlns="http://www.w3.org/2000/svg">
<path d="M1.69632 35.0389C1.37507 35.0389 1.13948 34.9747 1.00027 34.8355C0.850349 34.6963 0.775391 34.4607 0.775391 34.118V9.57401C0.775391 9.23133 0.850349 8.99574 1.00027 8.85653C1.15019 8.71732 1.38578 8.65307 1.69632 8.65307H4.34134C4.90889 8.65307 5.25156 8.92078 5.36936 9.46692L5.62636 10.42C6.36525 9.71322 7.25406 9.14566 8.29279 8.72803C9.33152 8.3104 10.3917 8.10693 11.4732 8.10693C13.8505 8.10693 15.7352 8.97433 17.1273 10.7198C18.5195 12.4653 19.2048 14.8212 19.2048 17.7875C19.2048 19.8221 18.8621 21.5997 18.1768 23.1203C17.4914 24.6409 16.5598 25.8082 15.3819 26.6327C14.2039 27.4573 12.8546 27.8642 11.334 27.8642C10.3274 27.8642 9.37436 27.7036 8.46413 27.3823C7.5539 27.0611 6.78289 26.622 6.15108 26.0545V34.118C6.15108 34.4607 6.08683 34.6963 5.94762 34.8355C5.80841 34.9747 5.57282 35.0389 5.23015 35.0389H1.69632ZM9.75986 23.8164C11.1306 23.8164 12.1479 23.3452 12.8011 22.4136C13.4543 21.4819 13.7756 20.0041 13.7756 18.0016C13.7756 15.967 13.4543 14.4785 12.8225 13.5469C12.18 12.6152 11.1627 12.1441 9.77057 12.1441C8.49625 12.1441 7.2969 12.476 6.16179 13.14V22.8205C7.23265 23.4844 8.432 23.8164 9.75986 23.8164Z" fill="white"/>
<path d="M23.7364 27.4568C23.4151 27.4568 23.1795 27.3819 23.0403 27.232C22.9011 27.082 22.8154 26.8572 22.8154 26.5359V9.57356C22.8154 9.23089 22.8904 8.9953 23.0403 8.85609C23.1902 8.71688 23.4151 8.65263 23.7364 8.65263H26.3921C26.9596 8.65263 27.3023 8.92034 27.4201 9.46648L27.902 11.4583C28.8872 10.3767 29.8081 9.6164 30.6862 9.15593C31.5536 8.70617 32.4852 8.47058 33.4704 8.47058H33.9844C34.3271 8.47058 34.5734 8.53483 34.7233 8.67404C34.8733 8.81325 34.9482 9.04884 34.9482 9.39152V12.4863C34.9482 12.8075 34.884 13.0324 34.7448 13.1823C34.6055 13.3323 34.37 13.4072 34.0273 13.4072C33.8559 13.4072 33.6311 13.3965 33.3634 13.3644C33.0956 13.343 32.753 13.3323 32.3353 13.3323C31.7678 13.3323 31.0824 13.4179 30.2793 13.5678C29.4654 13.7285 28.7801 13.9319 28.2232 14.1782V26.5359C28.2232 26.8572 28.159 27.082 28.0198 27.232C27.8806 27.3819 27.645 27.4568 27.3023 27.4568H23.7364Z" fill="white"/>
<path d="M40.2168 5.7399C39.2852 5.7399 38.5356 5.4829 37.968 4.96889C37.4005 4.45488 37.1221 3.75882 37.1221 2.87001C37.1221 1.9812 37.4005 1.28515 37.968 0.771137C38.5356 0.257127 39.2745 0.00012207 40.2168 0.00012207C41.1485 0.00012207 41.8981 0.257127 42.4656 0.771137C43.0332 1.28515 43.3116 1.9812 43.3116 2.87001C43.3116 3.75882 43.0332 4.45488 42.4656 4.96889C41.8981 5.4829 41.1485 5.7399 40.2168 5.7399ZM38.4499 27.4568C38.1287 27.4568 37.9038 27.3819 37.7539 27.232C37.604 27.082 37.529 26.8572 37.529 26.5359V9.57357C37.529 9.23089 37.604 8.9953 37.7539 8.85609C37.9038 8.71688 38.1287 8.65263 38.4499 8.65263H41.9837C42.3264 8.65263 42.562 8.71688 42.7012 8.85609C42.8404 8.9953 42.9047 9.23089 42.9047 9.57357V26.5359C42.9047 26.8572 42.8404 27.082 42.7012 27.232C42.562 27.3819 42.3264 27.4568 41.9837 27.4568H38.4499Z" fill="white"/>
<path d="M48.375 27.4572C48.0538 27.4572 47.8182 27.3822 47.679 27.2323C47.5291 27.0824 47.4541 26.8575 47.4541 26.5362V9.57388C47.4541 9.23121 47.5291 8.99562 47.679 8.85641C47.8289 8.7172 48.0538 8.65295 48.375 8.65295H51.02C51.5876 8.65295 51.9303 8.92066 52.0481 9.4668L52.3479 10.4627C53.6436 9.60601 54.8216 8.99562 55.8603 8.64224C56.899 8.28886 57.9806 8.10681 59.0836 8.10681C61.2895 8.10681 62.853 8.88854 63.7525 10.4627C65.0054 9.62743 66.1834 9.02775 67.2863 8.66366C68.3893 8.29957 69.5351 8.10681 70.7131 8.10681C72.4264 8.10681 73.765 8.5887 74.7074 9.54176C75.6497 10.4948 76.1209 11.8334 76.1209 13.5575V26.5362C76.1209 26.8575 76.0566 27.0824 75.9174 27.2323C75.7782 27.3822 75.5426 27.4572 75.2 27.4572H71.6661C71.3449 27.4572 71.1093 27.3822 70.9701 27.2323C70.8202 27.0824 70.7452 26.8575 70.7452 26.5362V14.7247C70.7452 13.0542 69.9956 12.2189 68.4964 12.2189C67.1685 12.2189 65.83 12.5402 64.4807 13.172V26.5362C64.4807 26.8575 64.4164 27.0824 64.2772 27.2323C64.138 27.3822 63.9024 27.4572 63.5598 27.4572H60.0259C59.7047 27.4572 59.4691 27.3822 59.3299 27.2323C59.1907 27.0824 59.105 26.8575 59.105 26.5362V14.7247C59.105 13.0542 58.3554 12.2189 56.8562 12.2189C55.4855 12.2189 54.1362 12.5509 52.8084 13.2148V26.5362C52.8084 26.8575 52.7441 27.0824 52.6049 27.2323C52.4657 27.3822 52.2301 27.4572 51.8874 27.4572H48.375Z" fill="white"/>
<path d="M88.8971 28.003C85.8558 28.003 83.5214 27.1678 81.883 25.4972C80.2553 23.8267 79.4414 21.4387 79.4414 18.3225C79.4414 15.1313 80.2767 12.6255 81.9472 10.8158C83.6177 9.00605 85.9308 8.09583 88.9078 8.09583C91.1887 8.09583 92.977 8.65267 94.262 9.75565C95.5471 10.8586 96.1896 12.3364 96.1896 14.1676C96.1896 16.0094 95.4935 17.4016 94.1121 18.3439C92.72 19.2863 90.6854 19.7574 87.9868 19.7574C86.584 19.7574 85.3739 19.6182 84.3459 19.3505C84.4958 20.9996 84.9884 22.1776 85.8344 22.8843C86.6804 23.5911 87.9654 23.9552 89.6788 23.9552C90.3641 23.9552 91.0388 23.9124 91.6813 23.8267C92.3345 23.741 93.234 23.5483 94.3905 23.2591C94.4655 23.2377 94.5405 23.2163 94.6154 23.2056C94.6904 23.1949 94.7546 23.1842 94.7975 23.1842C95.2151 23.1842 95.4186 23.4626 95.4186 24.0301V25.7221C95.4186 26.1183 95.365 26.386 95.2579 26.5467C95.1508 26.7073 94.9367 26.8465 94.6154 26.975C92.8057 27.6603 90.9103 28.003 88.8971 28.003ZM87.6763 16.4485C88.9292 16.4485 89.8394 16.2557 90.3963 15.8809C90.9531 15.5061 91.2422 14.9172 91.2422 14.1354C91.2422 12.5934 90.3213 11.8224 88.4794 11.8224C86.1235 11.8224 84.7636 13.2681 84.3888 16.1701C85.3846 16.3521 86.4769 16.4485 87.6763 16.4485Z" fill="white"/>
<path fill-rule="evenodd" clip-rule="evenodd" d="M86.9685 48.1348C76.4741 55.8771 61.2572 59.9999 48.1607 59.9999C29.7955 59.9999 13.2615 53.2106 0.753952 41.9131C-0.231234 41.0243 0.646867 39.8142 1.82481 40.4996C15.3283 48.3597 32.0229 53.0821 49.2637 53.0821C60.8932 53.0821 73.6792 50.6727 85.4479 45.6718C87.2148 44.9222 88.7033 46.8498 86.9685 48.1348Z" fill="white"/>
<path fill-rule="evenodd" clip-rule="evenodd" d="M91.3376 43.1452C89.999 41.4318 82.4602 42.3313 79.0763 42.7383C78.0483 42.8668 77.8983 41.9672 78.8193 41.314C84.8268 37.0949 94.6679 38.3156 95.8138 39.7292C96.9703 41.1534 95.5139 51.0267 89.8812 55.7277C89.0138 56.4559 88.1893 56.0704 88.5748 55.1066C89.8384 51.9476 92.6761 44.8693 91.3376 43.1452Z" fill="white"/>
<path d="M114.149 35.5094C112.125 35.5094 110.23 35.1346 108.473 34.3957C108.174 34.278 107.981 34.1387 107.884 33.9888C107.788 33.8389 107.734 33.6033 107.734 33.2821V32.2112C107.734 31.7614 107.884 31.5473 108.184 31.5473C108.334 31.5473 108.516 31.5901 108.72 31.6544C108.934 31.7293 109.223 31.815 109.587 31.9114C111.118 32.329 112.543 32.5432 113.849 32.5432C115.83 32.5432 117.276 32.072 118.186 31.1189C119.096 30.1659 119.557 28.6453 119.557 26.5357V24.8651C118.721 25.5826 117.811 26.1287 116.847 26.5143C115.884 26.8998 114.909 27.0925 113.924 27.0925C112.339 27.0925 110.968 26.6963 109.812 25.9039C108.655 25.1114 107.756 24.0192 107.146 22.6056C106.524 21.2028 106.214 19.5751 106.214 17.7547C106.214 14.7884 106.921 12.4325 108.323 10.6977C109.737 8.95223 111.622 8.08484 113.999 8.08484C116.226 8.08484 118.165 8.85586 119.814 10.3872L119.996 9.34845C120.049 9.08073 120.135 8.88798 120.274 8.7916C120.413 8.69523 120.606 8.64168 120.852 8.64168H122.448C122.941 8.64168 123.187 8.88798 123.187 9.38057V26.2787C123.187 29.2235 122.405 31.4937 120.831 33.1C119.268 34.7063 117.04 35.5094 114.149 35.5094ZM115.006 24.1262C116.537 24.1262 118.058 23.5587 119.567 22.4236V12.6788C118.829 12.1113 118.068 11.6936 117.308 11.4366C116.537 11.1796 115.702 11.0511 114.791 11.0511C111.579 11.0511 109.973 13.2357 109.973 17.6154C109.973 19.7679 110.401 21.3849 111.247 22.4878C112.093 23.5801 113.346 24.1262 115.006 24.1262Z" fill="white"/>
<path d="M132.414 27.9069C130.658 27.9069 129.255 27.4036 128.206 26.4077C127.157 25.4118 126.632 24.0626 126.632 22.3813C126.632 20.5823 127.274 19.1366 128.559 18.0658C129.844 16.9949 131.579 16.4488 133.753 16.4488C135.134 16.4488 136.687 16.663 138.422 17.0806V14.639C138.422 13.3005 138.122 12.3688 137.512 11.8227C136.901 11.2766 135.873 11.0088 134.417 11.0088C132.714 11.0088 131.044 11.2551 129.416 11.7477C128.849 11.9191 128.484 12.0047 128.345 12.0047C128.045 12.0047 127.895 11.7799 127.895 11.3408V10.3342C127.895 10.013 127.949 9.77737 128.045 9.62745C128.142 9.47753 128.345 9.34902 128.634 9.22052C129.405 8.87785 130.369 8.59943 131.547 8.38525C132.714 8.17108 133.882 8.07471 135.049 8.07471C137.394 8.07471 139.129 8.5673 140.242 9.54178C141.356 10.5163 141.913 12.0047 141.913 14.0072V26.6862C141.913 27.1788 141.667 27.4251 141.174 27.4251H139.578C139.107 27.4251 138.84 27.1895 138.765 26.7183L138.583 25.4975C137.694 26.2685 136.709 26.8575 135.638 27.2751C134.535 27.7035 133.475 27.9069 132.414 27.9069ZM133.303 25.1334C134.117 25.1334 134.974 24.9728 135.863 24.6515C136.751 24.3303 137.608 23.8591 138.422 23.2487V19.4686C137.083 19.1473 135.777 18.9867 134.492 18.9867C131.697 18.9867 130.305 20.0576 130.305 22.21C130.305 23.1523 130.562 23.8698 131.087 24.3731C131.59 24.8764 132.339 25.1334 133.303 25.1334Z" fill="white"/>
<path d="M147.237 27.4246C146.744 27.4246 146.498 27.1783 146.498 26.6857V9.38073C146.498 8.88814 146.744 8.64184 147.237 8.64184H148.865C149.111 8.64184 149.304 8.69538 149.443 8.79176C149.582 8.88814 149.668 9.07018 149.721 9.3486L149.946 10.5373C152.324 8.90955 154.626 8.0957 156.875 8.0957C159.177 8.0957 160.73 8.9738 161.544 10.73C163.985 8.9738 166.437 8.0957 168.879 8.0957C170.582 8.0957 171.899 8.57759 172.809 9.54136C173.719 10.5051 174.18 11.8758 174.18 13.6534V26.6965C174.18 27.189 173.933 27.4353 173.441 27.4353H171.256C170.764 27.4353 170.517 27.189 170.517 26.6965V14.6815C170.517 13.45 170.282 12.529 169.811 11.9401C169.339 11.3511 168.6 11.0513 167.583 11.0513C165.784 11.0513 163.964 11.6081 162.133 12.7218C162.154 12.8931 162.165 13.0859 162.165 13.2786V13.8676V26.6965C162.165 27.189 161.918 27.4353 161.426 27.4353H159.241C158.749 27.4353 158.502 27.189 158.502 26.6965V14.6815C158.502 13.45 158.267 12.529 157.796 11.9401C157.324 11.3511 156.586 11.0513 155.568 11.0513C153.694 11.0513 151.884 11.5974 150.16 12.679V26.6857C150.16 27.1783 149.914 27.4246 149.421 27.4246H147.237Z" fill="white"/>
<path d="M180.656 5.30095C179.938 5.30095 179.382 5.09748 178.964 4.69056C178.557 4.28363 178.354 3.74821 178.354 3.07357C178.354 2.40964 178.557 1.87421 178.964 1.45658C179.371 1.04965 179.938 0.846191 180.656 0.846191C181.373 0.846191 181.93 1.04965 182.348 1.45658C182.755 1.8635 182.958 2.39893 182.958 3.07357C182.958 3.7375 182.755 4.27293 182.348 4.69056C181.93 5.09748 181.363 5.30095 180.656 5.30095ZM179.542 27.4248C179.05 27.4248 178.803 27.1785 178.803 26.6859V9.3809C178.803 8.88831 179.05 8.64201 179.542 8.64201H181.727C182.219 8.64201 182.466 8.88831 182.466 9.3809V26.6859C182.466 27.1785 182.219 27.4248 181.727 27.4248H179.542Z" fill="white"/>
<path d="M187.887 27.4246C187.395 27.4246 187.148 27.1783 187.148 26.6857V9.3807C187.148 8.8881 187.395 8.64181 187.887 8.64181H189.515C189.761 8.64181 189.954 8.69535 190.093 8.79173C190.232 8.8881 190.318 9.07015 190.372 9.34857L190.597 10.7193C192.942 8.96306 195.415 8.08496 198.007 8.08496C199.806 8.08496 201.187 8.55614 202.119 9.5092C203.061 10.4623 203.533 11.8437 203.533 13.6427V26.6857C203.533 27.1783 203.286 27.4246 202.794 27.4246H200.609C200.116 27.4246 199.87 27.1783 199.87 26.6857V14.8635C199.87 13.557 199.602 12.5933 199.078 11.9722C198.542 11.3511 197.707 11.0512 196.572 11.0512C194.623 11.0512 192.706 11.683 190.821 12.9359V26.6857C190.821 27.1783 190.575 27.4246 190.083 27.4246H187.887Z" fill="white"/>
<path d="M215.096 35.5094C213.072 35.5094 211.177 35.1346 209.421 34.3957C209.121 34.278 208.928 34.1387 208.832 33.9888C208.735 33.8389 208.682 33.6033 208.682 33.2821V32.2112C208.682 31.7614 208.832 31.5473 209.131 31.5473C209.281 31.5473 209.463 31.5901 209.667 31.6544C209.881 31.7293 210.17 31.815 210.534 31.9114C212.066 32.329 213.49 32.5432 214.796 32.5432C216.777 32.5432 218.223 32.072 219.133 31.1189C220.043 30.1659 220.504 28.6453 220.504 26.5357V24.8651C219.658 25.5826 218.758 26.1287 217.795 26.5143C216.831 26.8998 215.856 27.0925 214.861 27.0925C213.276 27.0925 211.905 26.6963 210.748 25.9039C209.581 25.1114 208.692 24.0192 208.082 22.6056C207.461 21.2028 207.161 19.5751 207.161 17.7547C207.161 14.7884 207.868 12.4325 209.271 10.6977C210.674 8.95223 212.569 8.08484 214.946 8.08484C217.174 8.08484 219.112 8.85586 220.761 10.3872L220.943 9.34845C220.997 9.08073 221.082 8.88798 221.221 8.7916C221.361 8.69523 221.553 8.64168 221.8 8.64168H223.395C223.888 8.64168 224.134 8.88798 224.134 9.38057V26.2787C224.134 29.2235 223.352 31.4937 221.778 33.1C220.215 34.7063 217.987 35.5094 215.096 35.5094ZM215.953 24.1262C217.484 24.1262 219.005 23.5587 220.515 22.4236V12.6788C219.776 12.1113 219.015 11.6936 218.255 11.4366C217.484 11.1796 216.649 11.0511 215.739 11.0511C212.526 11.0511 210.92 13.2357 210.92 17.6154C210.92 19.7679 211.348 21.3849 212.194 22.4878C213.04 23.5801 214.293 24.1262 215.953 24.1262Z" fill="white"/>
</svg>
