<svg width="289" height="30" viewBox="0 0 289 30" fill="none" xmlns="http://www.w3.org/2000/svg">
<g clip-path="url(#clip0_154_1435)">
<path d="M37.6798 0C35.1229 0 33.0645 2.05846 33.0645 4.61538V21.9231C33.0645 24.48 35.1229 26.5385 37.6798 26.5385H43.8337V30H49.6029V26.5385H56.1414C58.6983 26.5385 60.7568 24.48 60.7568 21.9231V4.61538C60.7568 2.05846 58.6983 0 56.1414 0H37.6798ZM38.8337 4.61538H54.6029V21.5385H49.6029V18.8462H43.8337V21.5385H38.8337V4.61538Z" fill="white"/>
<path d="M5.75669 0.000183105C3.19976 0.000183105 1.1413 2.05864 1.1413 4.61557V10.7694C1.1413 13.3263 3.19976 15.3848 5.75669 15.3848H22.6798H23.449V21.5386H22.6798H12.2951H7.67976H6.91053H0.37207V21.9233C0.37207 24.4802 2.43053 26.5386 4.98745 26.5386H6.91053H7.67976H23.8336C26.3905 26.5386 28.449 24.4802 28.449 21.9233V15.0002C28.449 12.4433 26.3905 10.3848 23.8336 10.3848H22.6798H6.1413V4.61557H22.6798V6.92326H28.0644V4.61557C28.0644 2.05864 26.0059 0.000183105 23.449 0.000183105H5.75669Z" fill="white"/>
<path d="M65.3721 0.000183105V4.61557V21.9233C65.3721 24.4802 67.4305 26.5386 69.9875 26.5386H73.0644H76.5259H76.9105H79.9875H86.5259C89.0828 26.5386 91.1413 24.4802 91.1413 21.9233V4.61557V0.000183105H87.6798H85.7567H85.3721V21.5386H79.9875H76.9105H76.5259H73.0644H71.1413V0.000183105H69.9875H65.3721Z" fill="white"/>
<path d="M105.565 0.384799L92.2959 26.5386H98.0651L100.998 20.7694H115.902L118.834 26.5386H124.604L111.334 0.384799L111.142 0.000183105H105.757L105.565 0.384799ZM108.45 6.0698L113.57 16.154H103.33L108.45 6.0698Z" fill="white"/>
<path d="M127.296 0.000183105V4.61557V11.9233V26.5386H133.065V16.5386H136.719L146.334 26.5386H154.027L144.411 16.5386H147.296C149.853 16.5386 151.911 14.4802 151.911 11.9233V4.61557C151.911 2.05864 149.853 0.000183105 147.296 0.000183105H133.065H131.911H127.296ZM133.065 4.61557H144.604C145.456 4.61557 146.142 5.30172 146.142 6.15403V10.3848C146.142 11.2371 145.456 11.9233 144.604 11.9233H133.065V4.61557Z" fill="white"/>
<path d="M156.912 0V26.5385H179.22V21.5385H162.681V4.61539H179.22V0H156.912Z" fill="white"/>
<path d="M177.295 10.3847H167.68V15.3847H177.295V10.3847Z" fill="white"/>
<path d="M191.526 0V26.5385H213.834V21.5385H197.296V4.61539H213.834V0H191.526Z" fill="white"/>
<path d="M211.911 10.3847H202.296V15.3847H211.911V10.3847Z" fill="white"/>
<path d="M218.449 0V1.34615V26.5385H223.834V7.76462L237.68 24.2792L238.065 24.7362L239.579 26.5385H240.757H243.065H243.449V0H243.065H237.68V17.8608L223.834 1.34615L222.704 0H218.449Z" fill="white"/>
<path d="M254.218 0H248.064V26.5385H254.218V0Z" fill="white"/>
<path d="M257.272 0L268.822 12.8246L257.199 26.5385H264.122L272.392 16.7908L281.166 26.5385H288.089L275.745 12.8246L286.622 0H279.699L272.175 8.87039L264.195 0H257.272Z" fill="white"/>
</g>
<defs>
<clipPath id="clip0_154_1435">
<rect width="288.462" height="30" fill="white"/>
</clipPath>
</defs>
</svg>
