<svg width="121" height="110" viewBox="0 0 121 110" fill="none" xmlns="http://www.w3.org/2000/svg">
<path d="M0.104492 87.4965V100.919C0.104492 106.369 3.81968 109.843 9.23053 109.843C14.9221 109.843 18.4058 106.18 18.4058 100.551V87.4965H13.5885V100.306C13.5885 103.375 12.043 105.278 9.28188 105.278C6.25586 105.278 4.92191 103.09 4.92191 100.551V87.4965H0.104492ZM20.7479 87.682V109.624H28.4207C32.6703 109.624 36.2812 107.457 36.2812 103.158C36.2812 98.6707 32.3547 97.6761 32.3547 97.6761C32.3547 97.6761 35.2622 96.8685 35.2622 93.0296C35.2622 89.1932 31.5873 87.682 28.4207 87.682H20.7479ZM25.6013 91.8497H27.9304C29.5469 91.8497 30.5811 92.701 30.5811 94.1825C30.5811 95.5077 29.7037 96.5077 28.053 96.5077H25.6014V91.8497H25.6013ZM25.6013 99.9401H28.1755C30.5962 99.9401 31.4355 101.183 31.4355 102.667C31.4355 104.394 30.3498 105.406 28.4207 105.406H25.6014V99.9402L25.6013 99.9401ZM38.1046 87.6804H42.9465V109.622H38.1046V87.6804ZM90.9371 109.622H86.0951V87.6804H101.295V92.2159H90.9371V97.2418H100.376V100.919H90.9371V109.622ZM103.073 87.6804V92.2159H109.324V109.622H114.227V92.2159H120.356V87.6804H103.073ZM48.4742 102.326L44.6277 105.139C44.6277 105.139 45.9568 110 52.6202 110C57.0575 110 60.3227 107.41 60.3227 102.858C60.3227 95.5213 50.064 97.0777 50.064 93.3047C50.064 92.3118 50.947 91.4347 52.5767 91.4347C55.1914 91.4347 56.1852 93.9996 56.1852 93.9996L60.0328 91.2994C60.0328 91.2994 58.53 87.2934 52.7699 87.2934C48.0362 87.2934 45.5216 90.3304 45.5216 93.4642C45.5216 100.941 55.4816 99.318 55.4816 103.242C55.4816 104.566 54.4382 105.539 52.8131 105.528C49.5933 105.528 48.4742 102.326 48.4742 102.326ZM72.8257 87.2833C67.1237 87.2833 64.5821 90.3785 64.5821 90.3785L65.3176 91.114C65.3176 91.114 61.6286 93.7342 61.6286 99.3613C61.6286 105.836 66.6223 109.995 72.8525 109.995C80.0914 109.995 84.1989 104.654 84.1989 98.6488C84.1989 92.2454 79.5095 87.2833 72.8257 87.2833ZM72.9291 91.838C76.7952 91.838 79.3033 94.7929 79.3033 98.6297C79.3033 102.427 76.8251 105.464 72.9291 105.464C69.0799 105.464 66.551 102.776 66.551 99.2081C66.551 95.9612 68.7498 94.5462 68.7498 94.5462L67.9531 93.7494C67.9531 93.7494 69.6485 91.838 72.9291 91.838ZM58.0077 0C33.1399 0 22.4059 22.135 22.4059 22.135L25.5656 24.397C25.5656 24.397 21.5894 31.9583 21.6995 41.6567C21.6995 61.455 37.4594 80.1051 60.6594 80.1051C81.7357 80.1051 99.1461 62.9503 99.1461 41.7054C99.1461 13.9972 77.6592 0 58.0079 0H58.0077ZM58.2235 6.75431C77.6527 6.75431 92.7293 22.4111 92.7293 40.6128C92.7293 59.9078 78.2173 73.3264 61.3066 73.3264C48.8608 73.3264 37.6334 63.8486 37.6334 50.8538C37.6334 43.3484 41.6227 38.1158 46.0929 35.327L46.7471 36.0369C45.5238 36.9941 42.0355 42.5975 42.0355 48.1049C42.0355 58.3289 50.0532 65.4099 60.1548 65.4099C73.0225 65.4099 81.6043 54.4348 81.6043 41.6916C81.6043 26.865 68.5169 14.2776 52.7672 14.2776C44.0559 14.2776 36.6623 18.024 32.4138 21.3313L31.7526 20.7328C37.3108 12.1628 46.9361 6.75431 58.2235 6.75431ZM52.4261 20.938C62.4768 20.938 72.2893 27.5871 74.7386 37.0251L73.8478 37.3626C69.4501 31.5552 62.244 26.7424 53.7345 26.7424C38.0762 26.7424 29.8529 40.9709 31.0601 52.8547L30.138 53.1924C30.138 53.1924 28.4086 49.3763 28.4086 44.8512C28.4086 31.7474 39.1697 20.938 52.4261 20.938ZM59.0691 37.3834C63.8275 37.3834 67.6329 41.2403 67.6329 45.8186C67.6329 49.6073 65.2005 51.8526 65.2005 51.8526L68.0817 53.8673C68.0817 53.8673 65.2247 58.3529 59.3927 58.3529C53.8141 58.3529 48.8803 53.8502 48.8803 47.7951C48.8803 41.556 54.2469 37.3834 59.0691 37.3834Z" fill="white"/>
</svg>
