<svg width="61" height="48" viewBox="0 0 61 48" fill="none" xmlns="http://www.w3.org/2000/svg">
<g clip-path="url(#clip0_154_1520)">
<path d="M33.4233 36.0736C37.3497 35.8773 40.1472 34.9939 41.8159 33.4233C43.4847 31.8528 44.319 29.546 44.319 26.5031V25.7669H34.454V0H60.5153V17.6687C60.5153 24.7362 59.4356 30.4785 57.2761 34.8957C55.2147 39.3129 52.1718 42.5521 48.1472 44.6135C44.2209 46.6748 39.3129 47.8037 33.4233 48V36.0736ZM0 36.0736C3.92638 35.8773 6.72393 34.9939 8.39264 33.4233C10.0613 31.8528 10.8957 29.546 10.8957 26.5031V25.7669H1.03067V0H27.092V17.6687C27.092 24.7362 26.0123 30.4785 23.8528 34.8957C21.7914 39.3129 18.7485 42.5521 14.7239 44.6135C10.7975 46.6748 5.88957 47.8037 0 48V36.0736Z" fill="#FF3600"/>
</g>
<defs>
<clipPath id="clip0_154_1520">
<rect width="60.5153" height="48" fill="white"/>
</clipPath>
</defs>
</svg>
