<svg width="187" height="36" viewBox="0 0 187 36" fill="none" xmlns="http://www.w3.org/2000/svg">
<g clip-path="url(#clip0_3105_3313)">
<g clip-path="url(#clip1_3105_3313)">
<path d="M22.5347 3.11536H13.9847C13.4654 3.11536 13.05 3.53074 13.05 4.04997V16.0269C13.05 16.2692 13.327 16.4077 13.5 16.2692C15.0924 15.0923 17.0654 14.4346 19.2462 14.4346C23.6424 14.4346 27.0693 16.9269 28.4193 20.6307C28.5231 20.9423 28.9731 20.873 28.9731 20.5269V9.58843C29.0077 6.02305 26.1 3.11536 22.5347 3.11536Z" fill="#FF3600"/>
<path d="M20.9423 34.0961C20.3885 34.1654 19.8346 34.2346 19.2462 34.2346C17.2731 34.2346 15.5077 33.7154 14.0192 32.7461C13.7769 32.573 13.6385 32.5038 13.6385 32.5038C11.25 30.6346 9.13846 28.35 9.13846 23.85V4.04997C9.13846 3.53074 8.72308 3.11536 8.20385 3.11536H6.40385C2.90769 3.11536 0 6.02305 0 9.58843V25.6846C0 29.2154 2.83846 32.0538 6.33462 32.123C7.78846 32.123 8.51539 33.0923 9.83077 33.9577C10.3846 34.3038 11.0423 34.6846 11.7692 35.0307C12.15 35.2038 12.6 35.3769 13.0846 35.5154C13.6038 35.6538 14.1923 35.7577 14.8154 35.7923C16.8923 35.9654 19.3154 35.6538 21.1154 34.6154C21.4269 34.4769 21.2538 34.0269 20.9423 34.0961Z" fill="#FF3600"/>
<path d="M18.9693 18.1384C15.404 18.1384 12.7732 20.8038 12.7732 24.3346C12.7732 27.8307 15.404 30.5307 18.9693 30.5307C22.5347 30.5307 25.1309 27.9 25.1309 24.3346C25.1309 20.7692 22.5001 18.1384 18.9693 18.1384Z" fill="#FF3600"/>
<path d="M52.927 7.927C50.1232 7.927 47.6309 8.79238 45.6578 10.3501C45.5193 10.4539 45.3116 10.3501 45.3116 10.177V0.726994C45.3116 0.450071 45.0693 0.207764 44.7924 0.207764H41.0886C40.8116 0.207764 40.5693 0.450071 40.5693 0.726994V31.0847C40.5693 31.3616 40.8116 31.6039 41.0886 31.6039H43.6155C43.927 31.6039 44.204 31.3962 44.2732 31.0847L44.6886 29.3193C44.7232 29.1462 44.9309 29.1116 45.0347 29.2155C47.077 31.0501 49.8116 32.1578 52.927 32.1578C59.9193 32.1578 64.9386 26.9655 64.9386 20.0424C64.9386 13.1193 59.9193 7.927 52.927 7.927ZM52.5463 27.6232C48.1847 27.6232 44.9655 24.3347 44.9655 20.0424C44.9655 15.7155 48.1847 12.4616 52.5463 12.4616C56.9078 12.4616 60.0924 15.6808 60.0924 20.0424C60.0924 24.4039 56.9078 27.6232 52.5463 27.6232Z" fill="#FF3600"/>
<path d="M87.1616 11.0077C87.127 11.1808 86.9193 11.25 86.8155 11.1115C84.7386 9.13847 81.9001 7.96155 78.6463 7.96155C71.7578 7.96155 66.6001 13.1192 66.6001 20.0769C66.6001 27 71.7578 32.2269 78.6463 32.2269C81.8655 32.2269 84.6693 31.0846 86.7463 29.1115C86.8847 29.0077 87.0578 29.0423 87.0924 29.2154L87.4039 31.05C87.4732 31.3615 87.7501 31.6039 88.0616 31.6039H90.7963C91.0732 31.6039 91.3155 31.3615 91.3155 31.0846V9.00001C91.3155 8.72309 91.0732 8.48078 90.7963 8.48078H88.2001C87.8886 8.48078 87.6116 8.72309 87.5424 9.03462L87.1616 11.0077ZM79.027 27.6231C74.6655 27.6231 71.4463 24.3692 71.4463 20.0423C71.4463 15.7154 74.6655 12.4615 79.027 12.4615C83.3886 12.4615 86.5732 15.6808 86.5732 20.0423C86.5386 24.4039 83.3539 27.6231 79.027 27.6231Z" fill="#FF3600"/>
<path d="M103.846 17.6885C101.042 17.2385 98.6885 16.8231 98.6885 14.7808C98.6885 13.0846 100.315 11.9769 102.946 11.9769C105.508 11.9769 107.1 12.9462 107.446 14.8154C107.515 15.1269 107.792 15.3692 108.104 15.3692H111.462C111.773 15.3692 112.015 15.1269 111.981 14.8154C111.635 10.6269 108.208 7.96155 103.05 7.96155C97.6847 7.96155 94.0847 10.8 94.0847 14.9539C94.0847 20.3192 98.6193 21.1846 102.462 21.8423C105.3 22.3269 107.758 22.8115 107.758 25.0269C107.758 26.9654 105.785 28.0385 103.258 28.0385C100.696 28.0385 98.7578 26.9654 98.3424 24.8539C98.2732 24.5423 97.9962 24.3 97.6847 24.3H94.1885C93.877 24.3 93.6347 24.5423 93.6693 24.8539C94.0501 29.3192 97.6847 32.1923 103.085 32.1923C108.727 32.1923 112.465 29.2846 112.465 24.7846C112.5 19.0731 107.758 18.3462 103.846 17.6885Z" fill="#FF3600"/>
<path d="M126 27.3115C123.196 27.3115 121.673 25.7885 121.673 23.0192V12.8423C121.673 12.7038 121.812 12.5654 121.95 12.5654H128.008C128.285 12.5654 128.527 12.3231 128.527 12.0462V9C128.527 8.72307 128.285 8.48077 128.008 8.48077H121.915C121.777 8.48077 121.639 8.34231 121.639 8.20384V3.66923C121.639 3.15 121.015 2.90769 120.669 3.28846L112.985 11.4577C112.604 11.8731 112.881 12.5654 113.469 12.5654H116.654C116.792 12.5654 116.931 12.7038 116.931 12.8423V23.3654C116.931 28.4885 120.046 31.6038 125.135 31.6038H128.146C128.423 31.6038 128.665 31.3615 128.665 31.0846V27.7962C128.665 27.5192 128.423 27.2769 128.146 27.2769H126V27.3115Z" fill="#FF3600"/>
<path d="M133.892 0.034668C132.542 0.034668 131.435 1.14236 131.435 2.49236C131.435 3.84236 132.542 4.95005 133.892 4.95005C135.242 4.95005 136.35 3.84236 136.35 2.49236C136.35 1.10775 135.277 0.034668 133.892 0.034668Z" fill="#FF3600"/>
<path d="M132.058 31.6038H135.762C136.039 31.6038 136.281 31.3615 136.281 31.0846V9.03461C136.281 8.75769 136.039 8.51538 135.762 8.51538H132.058C131.781 8.51538 131.539 8.75769 131.539 9.03461V31.1192C131.539 31.3962 131.746 31.6038 132.058 31.6038Z" fill="#FF3600"/>
<path d="M151.096 7.927C144.035 7.927 138.739 13.0501 138.739 20.0424C138.739 27.0001 144.035 32.1578 151.096 32.1578C158.158 32.1578 163.454 27.0001 163.454 20.0424C163.454 13.1193 158.158 7.927 151.096 7.927ZM151.096 27.6578C146.735 27.6578 143.585 24.5078 143.585 20.077C143.585 15.6462 146.735 12.4962 151.096 12.4962C155.458 12.4962 158.608 15.6462 158.608 20.077C158.608 24.4732 155.458 27.6578 151.096 27.6578Z" fill="#FF3600"/>
<path d="M186.923 17.6885C186.923 12.0115 183.531 7.96155 178.131 7.96155C174.912 7.96155 172.142 9.24232 170.377 11.3885C170.273 11.5269 170.065 11.4923 169.996 11.3192L169.338 8.96539C169.269 8.68847 168.992 8.48078 168.681 8.48078H166.396C166.119 8.48078 165.877 8.72309 165.877 9.00001V31.0846C165.877 31.3615 166.119 31.6039 166.396 31.6039H170.1C170.377 31.6039 170.619 31.3615 170.619 31.0846V19.2462C170.619 15.1615 173.181 12.2539 176.815 12.2539C180.277 12.2539 182.112 14.4692 182.112 18.6923V31.1192C182.112 31.3962 182.354 31.6385 182.631 31.6385H186.335C186.612 31.6385 186.854 31.3962 186.854 31.1192V17.6885H186.923Z" fill="#FF3600"/>
</g>
</g>
<defs>
<clipPath id="clip0_3105_3313">
<rect width="186.923" height="36" fill="white"/>
</clipPath>
<clipPath id="clip1_3105_3313">
<rect width="186.923" height="36" fill="white"/>
</clipPath>
</defs>
</svg>
