<svg width="186" height="36" viewBox="0 0 186 36" fill="none" xmlns="http://www.w3.org/2000/svg">
<g clip-path="url(#clip0_3219_10290)">
<g clip-path="url(#clip1_3219_10290)">
<path d="M22.9 3.33398H14.4368C13.9229 3.33398 13.5117 3.74515 13.5117 4.25911V16.1144C13.5117 16.3543 13.7858 16.4913 13.9572 16.3543C15.5333 15.1893 17.4863 14.5383 19.645 14.5383C23.9965 14.5383 27.3886 17.0053 28.7249 20.6715C28.8277 20.9799 29.2731 20.9114 29.2731 20.5688V9.74135C29.3074 6.21216 26.4292 3.33398 22.9 3.33398Z" fill="white"/>
<path d="M21.3234 34.0002C20.7752 34.0688 20.227 34.1373 19.6445 34.1373C17.6915 34.1373 15.944 33.6233 14.4707 32.6639C14.2308 32.4926 14.0938 32.4241 14.0938 32.4241C11.7295 30.5738 9.63944 28.3124 9.63944 23.8581V4.25911C9.63944 3.74515 9.22827 3.33398 8.71431 3.33398H6.93258C3.47192 3.33398 0.59375 6.21216 0.59375 9.74135V25.6741C0.59375 29.169 3.40339 31.9787 6.86405 32.0472C8.30314 32.0472 9.02268 33.0066 10.3247 33.8632C10.8729 34.2058 11.524 34.5827 12.2435 34.9254C12.6204 35.0967 13.0658 35.268 13.5455 35.4051C14.0595 35.5421 14.642 35.6449 15.2587 35.6792C17.3146 35.8505 19.713 35.5421 21.4948 34.5142C21.8031 34.3771 21.6318 33.9317 21.3234 34.0002Z" fill="white"/>
<path d="M19.3706 18.2051C15.8414 18.2051 13.2373 20.8434 13.2373 24.3383C13.2373 27.799 15.8414 30.4716 19.3706 30.4716C22.8997 30.4716 25.4695 27.8675 25.4695 24.3383C25.4695 20.8091 22.8655 18.2051 19.3706 18.2051Z" fill="white"/>
<path d="M52.9832 8.09789C50.2078 8.09789 47.7408 8.95449 45.7878 10.4964C45.6507 10.5992 45.4451 10.4964 45.4451 10.3251V0.970991C45.4451 0.696879 45.2053 0.457031 44.9312 0.457031H41.2649C40.9908 0.457031 40.751 0.696879 40.751 0.970991V31.0205C40.751 31.2946 40.9908 31.5344 41.2649 31.5344H43.7662C44.0746 31.5344 44.3487 31.3289 44.4172 31.0205L44.8284 29.273C44.8627 29.1017 45.0682 29.0674 45.171 29.1702C47.1926 30.9862 49.8995 32.0827 52.9832 32.0827C59.9045 32.0827 64.8728 26.9431 64.8728 20.0903C64.8728 13.2375 59.9045 8.09789 52.9832 8.09789ZM52.6063 27.5941C48.289 27.5941 45.1025 24.339 45.1025 20.0903C45.1025 15.8073 48.289 12.5865 52.6063 12.5865C56.9236 12.5865 60.0758 15.773 60.0758 20.0903C60.0758 24.4075 56.9236 27.5941 52.6063 27.5941Z" fill="white"/>
<path d="M86.8704 11.1461C86.8361 11.3174 86.6305 11.3859 86.5277 11.2489C84.4719 9.29583 81.6622 8.13086 78.4414 8.13086C71.6229 8.13086 66.5176 13.2362 66.5176 20.1232C66.5176 26.976 71.6229 32.1499 78.4414 32.1499C81.628 32.1499 84.4034 31.0192 86.4592 29.0661C86.5963 28.9633 86.7676 28.9976 86.8018 29.1689L87.1102 30.9849C87.1787 31.2933 87.4529 31.5331 87.7612 31.5331H90.4681C90.7422 31.5331 90.982 31.2933 90.982 31.0192V9.15878C90.982 8.88467 90.7422 8.64482 90.4681 8.64482H87.8983C87.5899 8.64482 87.3158 8.88467 87.2473 9.19304L86.8704 11.1461ZM78.8183 27.5928C74.5011 27.5928 71.3145 24.372 71.3145 20.089C71.3145 15.806 74.5011 12.5852 78.8183 12.5852C83.1356 12.5852 86.2879 15.7717 86.2879 20.089C86.2536 24.4062 83.1013 27.5928 78.8183 27.5928Z" fill="white"/>
<path d="M103.385 17.759C100.61 17.3136 98.2801 16.9024 98.2801 14.8809C98.2801 13.2019 99.8905 12.1055 102.495 12.1055C105.03 12.1055 106.606 13.0649 106.949 14.9151C107.017 15.2235 107.292 15.4633 107.6 15.4633H110.924C111.232 15.4633 111.472 15.2235 111.437 14.9151C111.095 10.7692 107.703 8.13086 102.597 8.13086C97.2865 8.13086 93.723 10.9405 93.723 15.0522C93.723 20.3631 98.2116 21.2197 102.015 21.8707C104.825 22.3504 107.257 22.8301 107.257 25.023C107.257 26.9418 105.304 28.004 102.803 28.004C100.267 28.004 98.3487 26.9418 97.9375 24.8517C97.869 24.5433 97.5949 24.3034 97.2865 24.3034H93.8258C93.5174 24.3034 93.2776 24.5433 93.3119 24.8517C93.6888 29.2717 97.2865 32.1156 102.632 32.1156C108.217 32.1156 111.917 29.2375 111.917 24.7831C111.951 19.1296 107.257 18.41 103.385 17.759Z" fill="white"/>
<path d="M125.314 27.2855C122.539 27.2855 121.031 25.7779 121.031 23.0368V12.9631C121.031 12.8261 121.168 12.689 121.305 12.689H127.301C127.576 12.689 127.815 12.4492 127.815 12.1751V9.15985C127.815 8.88574 127.576 8.64589 127.301 8.64589H121.271C121.134 8.64589 120.997 8.50884 120.997 8.37178V3.8832C120.997 3.36924 120.38 3.12939 120.038 3.5063L112.431 11.5926C112.054 12.0038 112.328 12.689 112.911 12.689H116.063C116.2 12.689 116.337 12.8261 116.337 12.9631V23.3794C116.337 28.4505 119.421 31.5342 124.458 31.5342H127.439C127.713 31.5342 127.952 31.2944 127.952 31.0203V27.7652C127.952 27.4911 127.713 27.2512 127.439 27.2512H125.314V27.2855Z" fill="white"/>
<path d="M133.127 0.285156C131.791 0.285156 130.694 1.3816 130.694 2.7179C130.694 4.05419 131.791 5.15064 133.127 5.15064C134.463 5.15064 135.56 4.05419 135.56 2.7179C135.56 1.34734 134.498 0.285156 133.127 0.285156Z" fill="white"/>
<path d="M131.311 31.5337H134.977C135.251 31.5337 135.491 31.2939 135.491 31.0198V9.19365C135.491 8.91954 135.251 8.67969 134.977 8.67969H131.311C131.037 8.67969 130.797 8.91954 130.797 9.19365V31.0541C130.797 31.3282 131.002 31.5337 131.311 31.5337Z" fill="white"/>
<path d="M150.156 8.09766C143.166 8.09766 137.924 13.1687 137.924 20.09C137.924 26.9771 143.166 32.0824 150.156 32.0824C157.146 32.0824 162.388 26.9771 162.388 20.09C162.388 13.2373 157.146 8.09766 150.156 8.09766ZM150.156 27.6281C145.839 27.6281 142.721 24.5101 142.721 20.1243C142.721 15.7385 145.839 12.6205 150.156 12.6205C154.473 12.6205 157.591 15.7385 157.591 20.1243C157.591 24.4758 154.473 27.6281 150.156 27.6281Z" fill="white"/>
<path d="M185.619 17.759C185.619 12.1397 182.261 8.13086 176.916 8.13086C173.729 8.13086 170.988 9.39863 169.24 11.523C169.138 11.66 168.932 11.6258 168.864 11.4545L168.213 9.12451C168.144 8.8504 167.87 8.64482 167.562 8.64482H165.3C165.026 8.64482 164.786 8.88467 164.786 9.15878V31.0192C164.786 31.2933 165.026 31.5331 165.3 31.5331H168.966C169.24 31.5331 169.48 31.2933 169.48 31.0192V19.3009C169.48 15.2578 172.016 12.3796 175.614 12.3796C179.04 12.3796 180.856 14.5725 180.856 18.7527V31.0534C180.856 31.3276 181.096 31.5674 181.37 31.5674H185.036C185.31 31.5674 185.55 31.3276 185.55 31.0534V17.759H185.619Z" fill="white"/>
</g>
</g>
<defs>
<clipPath id="clip0_3219_10290">
<rect width="185.625" height="36" fill="white"/>
</clipPath>
<clipPath id="clip1_3219_10290">
<rect width="185.625" height="36" fill="white"/>
</clipPath>
</defs>
</svg>
